<svg width="128" height="128" viewBox="0 0 128 128" fill="none" xmlns="http://www.w3.org/2000/svg">
<path fill-rule="evenodd" clip-rule="evenodd" d="M63.9995 2C28.6582 2 0 30.6889 0 66.0823C0 94.3966 18.3378 118.416 43.7667 126.891C46.9642 127.485 48.1384 125.501 48.1384 123.808C48.1384 122.28 48.0791 117.232 48.0515 111.877C30.2468 115.754 26.4898 104.317 26.4898 104.317C23.5785 96.9095 19.3838 94.94 19.3838 94.94C13.5761 90.9627 19.8215 91.0454 19.8215 91.0454C26.2471 91.4964 29.6321 97.6491 29.6321 97.6491C35.3402 107.444 44.604 104.613 48.2561 102.976C48.8305 98.8345 50.4891 96.0064 52.3194 94.4062C38.1042 92.7879 23.1599 87.2921 23.1599 62.7375C23.1599 55.7412 25.661 50.0246 29.7551 45.5358C29.0895 43.9228 26.8989 37.4051 30.374 28.5782C30.374 28.5782 35.7472 26.8559 47.9773 35.1469C53.0835 33.726 58.5595 33.0118 63.9995 32.9874C69.4363 33.0118 74.9155 33.7239 80.0311 35.1448C92.2464 26.8538 97.6133 28.5761 97.6133 28.5761C101.097 37.4019 98.9062 43.9207 98.2417 45.5337C102.345 50.0225 104.828 55.739 104.828 62.7354C104.828 87.3483 89.8566 92.7667 75.6054 94.3542C77.902 96.3428 79.9474 100.244 79.9474 106.221C79.9474 114.796 79.8732 121.696 79.8732 123.807C79.8732 125.512 81.0263 127.511 84.2693 126.881C109.683 118.398 128 94.386 128 66.0823C127.999 30.691 99.3439 2 63.9995 2Z" fill="white"/>
<path d="M24.0771 93.2711C23.9371 93.5869 23.4402 93.6817 22.9875 93.4659C22.5243 93.2596 22.2664 92.829 22.4159 92.5121C22.5528 92.1858 23.0507 92.0963 23.5107 92.3142C23.9739 92.5216 24.2371 92.9564 24.076 93.2722L24.0771 93.2711ZM26.6519 96.1439C26.3498 96.425 25.7572 96.2944 25.355 95.8492C24.9382 95.407 24.8603 94.8144 25.1687 94.5291C25.4824 94.2491 26.0572 94.3817 26.474 94.8238C26.8888 95.2723 26.9709 95.8597 26.653 96.145L26.6519 96.1439ZM29.1594 99.8041C28.7699 100.076 28.132 99.822 27.7383 99.2567C27.3488 98.6904 27.3488 98.0114 27.7488 97.7408C28.1415 97.4693 28.7699 97.7145 29.17 98.2746C29.5574 98.8483 29.5574 99.5283 29.1594 99.8041ZM32.5923 103.342C32.2449 103.726 31.5017 103.623 30.9585 103.1C30.4037 102.587 30.249 101.858 30.5974 101.475C30.9511 101.089 31.6975 101.197 32.2438 101.717C32.7986 102.228 32.966 102.959 32.5944 103.341L32.5923 103.342ZM37.3293 105.396C37.1746 105.894 36.4609 106.12 35.7398 105.908C35.0208 105.69 34.5502 105.108 34.6976 104.604C34.845 104.102 35.564 103.867 36.2893 104.094C37.0083 104.311 37.4788 104.89 37.3293 105.396ZM42.5328 105.776C42.5507 106.3 41.9401 106.734 41.1853 106.744C40.4242 106.762 39.8084 106.337 39.801 105.821C39.801 105.292 40.399 104.863 41.159 104.849C41.9138 104.835 42.5338 105.256 42.5338 105.775L42.5328 105.776ZM47.373 104.953C47.4636 105.463 46.9383 105.989 46.1877 106.129C45.4508 106.265 44.7666 105.948 44.6718 105.441C44.5813 104.917 45.1161 104.392 45.8529 104.256C46.6046 104.126 47.2783 104.434 47.373 104.953Z" fill="white"/>
</svg>
