<svg width="128" height="128" viewBox="0 0 128 128" fill="none" xmlns="http://www.w3.org/2000/svg">
<mask id="mask0_15_12" style="mask-type:alpha" maskUnits="userSpaceOnUse" x="0" y="0" width="128" height="128">
<path d="M64 128C99.3462 128 128 99.3462 128 64C128 28.6538 99.3462 0 64 0C28.6538 0 0 28.6538 0 64C0 99.3462 28.6538 128 64 128Z" fill="black"/>
</mask>
<g mask="url(#mask0_15_12)">
<path d="M64 125.867C98.168 125.867 125.867 98.168 125.867 64C125.867 29.832 98.168 2.13336 64 2.13336C29.832 2.13336 2.13336 29.832 2.13336 64C2.13336 98.168 29.832 125.867 64 125.867Z" fill="black" stroke="white" stroke-width="6"/>
<path d="M106.317 112.014L49.1677 38.4H38.4V89.5787H47.0141V49.3395L99.5549 117.223C101.926 115.637 104.184 113.895 106.317 112.014Z" fill="url(#paint0_linear_15_12)"/>
<path d="M90.3112 38.4H81.7778V89.6H90.3112V38.4Z" fill="url(#paint1_linear_15_12)"/>
</g>
<defs>
<linearGradient id="paint0_linear_15_12" x1="77.5111" y1="82.8445" x2="102.756" y2="114.133" gradientUnits="userSpaceOnUse">
<stop stop-color="white"/>
<stop offset="1" stop-color="white" stop-opacity="0"/>
</linearGradient>
<linearGradient id="paint1_linear_15_12" x1="86.0445" y1="38.4" x2="85.9016" y2="76" gradientUnits="userSpaceOnUse">
<stop stop-color="white"/>
<stop offset="1" stop-color="white" stop-opacity="0"/>
</linearGradient>
</defs>
</svg>
