<svg width="128" height="128" viewBox="0 0 128 128" fill="none" xmlns="http://www.w3.org/2000/svg">
<path d="M33.2192 14.6817L44.0718 8.46768L105.949 36.9996C105.949 36.9996 106.737 88.1121 105.949 87.9371C105.162 87.762 64.1142 111.043 64.1142 111.043L23.2417 84.4362L33.2192 14.6817Z" fill="#010101"/>
<path d="M112.163 24.6591L74.0041 2.69128C67.7901 -0.897094 60.1757 -0.897094 54.0492 2.69128L44.0718 8.46769V34.1115V39.9754V64.0438C44.0718 71.133 47.8352 77.7846 54.0492 81.373C57.1125 83.1234 60.6133 84.0862 64.0267 84.0862C67.44 84.0862 70.9409 83.2109 74.0041 81.373C80.2181 77.7846 83.9815 71.2205 83.9815 64.0438C83.9815 56.9545 80.2181 50.3029 74.0041 46.7145C70.9409 44.9641 67.44 44.0014 64.0267 44.0014V31.4858C67.44 31.4858 70.9409 32.361 74.0041 34.199L84.8568 40.5005C91.0708 44.0889 94.8342 50.653 94.8342 57.8297V70.3453C94.8342 77.4345 91.0708 84.0862 84.8568 87.6745L74.0041 93.9761C70.9409 95.7265 67.44 96.6892 64.0267 96.6892C60.6133 96.6892 57.1125 95.814 54.0492 93.9761L43.1966 87.6745C36.9826 84.0862 33.2191 77.5221 33.2191 70.3453V64.0438V57.7422V41.5508V14.6817L15.9774 24.6591C9.76342 28.2475 6 34.8116 6 41.9884V86.0116C6 93.1009 9.76342 99.7525 15.9774 103.341L54.1368 125.309C60.3508 128.897 67.9651 128.897 74.0916 125.309L112.251 103.341C118.465 99.7525 122.228 93.1884 122.228 86.0116V41.9884C122.141 34.8116 118.29 28.2475 112.163 24.6591ZM51.7737 48.2899C50.6359 49.1651 49.6732 50.1279 48.798 51.1781V37.1747L51.7737 35.4243V48.2899ZM59.388 44.614C58.3378 44.8766 57.375 45.1391 56.4123 45.5767V32.9737C57.375 32.5361 58.4253 32.2735 59.388 32.0109V44.614Z" fill="#FAD83B"/>
</svg>
