<svg width="128" height="128" viewBox="0 0 128 128" fill="none" xmlns="http://www.w3.org/2000/svg">
<mask id="mask0_15_12" style="mask-type:luminance" maskUnits="userSpaceOnUse" x="0" y="26" width="128" height="77">
<path d="M0 26H128V102.8H0V26Z" fill="white"/>
</mask>
<g mask="url(#mask0_15_12)">
<path fill-rule="evenodd" clip-rule="evenodd" d="M64 26C46.9333 26 36.2667 34.5333 32 51.6C38.4 43.0667 45.8667 39.8667 54.4 42C59.2687 43.216 62.7484 46.7502 66.6003 50.659C72.8747 57.0281 80.1375 64.4 96 64.4C113.067 64.4 123.733 55.8667 128 38.8C121.6 47.3333 114.133 50.5333 105.6 48.4C100.731 47.184 97.2516 43.6498 93.3997 39.741C87.1253 33.3719 79.8625 26 64 26ZM32 64.4C14.9333 64.4 4.26667 72.9333 0 90C6.4 81.4667 13.8667 78.2667 22.4 80.4C27.2687 81.6184 30.7484 85.1502 34.6003 89.059C40.8747 95.4282 48.1375 102.8 64 102.8C81.0667 102.8 91.7333 94.2667 96 77.2C89.6 85.7333 82.1333 88.9333 73.6 86.8C68.7313 85.584 65.2516 82.0498 61.3997 78.141C55.1253 71.7719 47.8625 64.4 32 64.4Z" fill="#38BDF8"/>
</g>
</svg>
