<svg width="128" height="128" viewBox="0 0 128 128" fill="none" xmlns="http://www.w3.org/2000/svg">
<rect width="128" height="128" fill="white"/>
<path d="M21.678 46.6842H123.74V122.122H21.678V46.6842Z" fill="white"/>
<path d="M0 64V128H128V0H0V64ZM103.148 58.88C106.213 59.5914 109 61.1949 111.155 63.488C112.342 64.7234 113.373 66.0989 114.227 67.584C114.227 67.7478 108.698 71.4854 105.329 73.5744C105.206 73.6563 104.714 73.1238 104.172 72.3149C103.557 71.2537 102.683 70.3656 101.632 69.7335C100.58 69.1014 99.3863 68.7459 98.1606 68.7002C94.2797 68.4339 91.7811 70.4717 91.8016 73.8202C91.7695 74.6538 91.9604 75.481 92.3546 76.2163C93.2045 77.9878 94.7917 79.0426 99.7683 81.193C108.933 85.1354 112.855 87.7363 115.292 91.433C118.016 95.529 118.62 102.144 116.777 107.039C114.729 112.364 109.711 115.978 102.615 117.176C99.3739 117.548 96.0992 117.513 92.8666 117.074C87.9121 116.257 83.3483 113.878 79.8413 110.285C78.6637 108.984 76.3699 105.595 76.5133 105.349C76.8871 105.072 77.2807 104.822 77.6909 104.602L82.432 101.98L86.1082 99.8502L86.8762 100.987C88.1723 102.841 89.8218 104.421 91.7299 105.636C95.8259 107.786 101.417 107.489 104.182 105.001C105.11 104.089 105.689 102.881 105.818 101.586C105.947 100.291 105.618 98.992 104.888 97.9149C103.864 96.4915 101.816 95.2934 96.0922 92.7949C89.4874 89.9482 86.6406 88.1869 84.0397 85.3811C82.416 83.5296 81.2171 81.3452 80.5274 78.9811C80.0128 76.2803 79.9368 73.5142 80.3021 70.7891C81.664 64.4096 86.4461 59.9552 93.4298 58.6342C96.664 58.2341 99.9401 58.3238 103.148 58.9005V58.88ZM73.1034 64.2458V69.4886H56.4838V116.828H44.6976V69.4784H28.0371V64.3584C27.9852 62.5928 28.0262 60.8256 28.16 59.0643C28.2419 58.9722 38.4 58.9722 50.688 58.9722H73.0419L73.1034 64.2458Z" fill="#007ACC"/>
</svg>
